HIERARCHY
ROOT Hips
{
    OFFSET 0 0 0
    CHANNELS 6 Xposition Yposition Zposition Zrotation Yrotation Xrotation
    JOINT Chest
    {
        OFFSET 1.261052E-14 2.2 9.616505E-08
        CHANNELS 3 Zrotation Yrotation Xrotation
        JOINT Chest2
        {
            OFFSET 0 2.866667 0
            CHANNELS 3 Zrotation Yrotation Xrotation
            JOINT Neck
            {
                OFFSET 0 1.433333 0
                CHANNELS 3 Zrotation Yrotation Xrotation
                JOINT Head
                {
                    OFFSET -5.955877E-09 1.099063 -0.0454182
                    CHANNELS 3 Zrotation Yrotation Xrotation
                    End Site
                    {
                        OFFSET 1.742161E-07 0.215971 1.988305
                    }
                }
            }
            JOINT LeftCollar
            {
                OFFSET 0.6 0.333333 -7.86805E-08
                CHANNELS 3 Zrotation Yrotation Xrotation
                JOINT LeftShoulder
                {
                    OFFSET 1.399785 0.02316189 0.008118234
                    CHANNELS 3 Zrotation Yrotation Xrotation
                    JOINT LeftElbow
                    {
                        OFFSET 2.28797 0.1912422 -0.1364633
                        CHANNELS 3 Zrotation Yrotation Xrotation
                        JOINT LeftWrist
                        {
                            OFFSET 2.775776 0.232193 0.2848766
                            CHANNELS 3 Zrotation Yrotation Xrotation
                            End Site
                            {
                                OFFSET 0.9913487 0.0829258 0.1017416
                            }
                        }
                    }
                }
            }
            JOINT RightCollar
            {
                OFFSET -0.6 0.333333 7.86805E-08
                CHANNELS 3 Zrotation Yrotation Xrotation
                JOINT RightShoulder
                {
                    OFFSET -1.399785 0.02316189 0.008118574
                    CHANNELS 3 Zrotation Yrotation Xrotation
                    JOINT RightElbow
                    {
                        OFFSET -2.28797 0.1912422 -0.136463
                        CHANNELS 3 Zrotation Yrotation Xrotation
                        JOINT RightWrist
                        {
                            OFFSET -2.775776 0.232193 0.2848771
                            CHANNELS 3 Zrotation Yrotation Xrotation
                            End Site
                            {
                                OFFSET -0.9913487 0.0829258 0.1017418
                            }
                        }
                    }
                }
            }
        }
    }
    JOINT LeftHip
    {
        OFFSET 0.9032136 0.1000166 0.0003561888
        CHANNELS 3 Zrotation Yrotation Xrotation
        JOINT LeftKnee
        {
            OFFSET 0.09757304 -3.66482 0.4995777
            CHANNELS 3 Zrotation Yrotation Xrotation
            JOINT LeftAnkle
            {
                OFFSET 0.1137198 -4.272043 -0.4761516
                CHANNELS 3 Zrotation Yrotation Xrotation
                End Site
                {
                    OFFSET -1 0 8.754432E-08
                }
            }
        }
    }
    JOINT RightHip
    {
        OFFSET -0.9032136 0.1000166 0.0003564245
        CHANNELS 3 Zrotation Yrotation Xrotation
        JOINT RightKnee
        {
            OFFSET -0.09757292 -3.66482 0.4995777
            CHANNELS 3 Zrotation Yrotation Xrotation
            JOINT RightAnkle
            {
                OFFSET -0.1137199 -4.272043 -0.4761516
                CHANNELS 3 Zrotation Yrotation Xrotation
                End Site
                {
                    OFFSET -1 0 8.754432E-08
                }
            }
        }
    }
}
MOTION
Frames:    15
Frame Time:    0.016667
-0.2837422    8.81881    0.07591154    1.617366    10.98673    0.5278434    0.808973    -8.556577    0.4139732    1.765375    1.02835    0.7400972    -0.03803898    -2.170933    4.311584    0.2576695    -6.210857    22.06543    -4.451998    -0.4980243    0.07248785    -23.72835    17.06554    -6.902297    -0.5960587    -27.44401    2.48572    4.835958E-07    1.025232E-07    1.026022E-07    3.877381    -2.8953    -0.1016738    20.35074    -40.2493    -0.3155164    3.349249    54.05415    6.605283    -8.843573E-07    4.61944E-07    3.00562E-07    -0.609966    2.74594    3.353356    0.04480023    0.3680488    13.96194    0.05399547    -4.833552    -6.715119    -6.540795    -34.46236    18.09578    -5.460353E-07    0.0003668653    -0.01383846    3.664593    4.931074    -12.74368
-0.2852828    8.817937    0.07715316    1.61576    10.98664    0.5370901    0.8198956    -8.543848    0.4078766    1.771345    1.025303    0.7432578    -0.03789444    -2.167664    4.30488    0.2575714    -6.208488    22.03154    -4.536632    -0.5211654    0.07424027    -24.17256    16.83691    -6.936872    -0.5881509    -27.28012    2.468368    -5.986852E-07    -6.183446E-08    1.879791E-07    3.902618    -2.886659    -0.1018453    20.5308    -40.30796    -0.3515437    3.379013    54.20488    6.64209    -1.235669E-07    3.045157E-07    8.295265E-08    -0.6053049    2.736094    3.204066    0.04669815    0.3756236    14.25526    0.06039182    -4.838662    -6.42865    -6.34237    -33.99595    18.00073    7.396805E-08    0.0002289504    -0.008601231    3.499974    5.002825    -12.80932
-0.2896645    8.815363    0.0808803    1.611456    10.98638    0.5643541    0.8493524    -8.50677    0.39053    1.787252    1.016672    0.7527311    -0.0376652    -2.164439    4.284864    0.2586776    -6.234958    21.92914    -4.761955    -0.5862153    0.07888962    -25.36706    16.23401    -7.040968    -0.5696245    -26.89068    2.427342    5.917343E-07    -2.468001E-08    -2.000969E-07    3.976091    -2.86147    -0.1023401    21.05792    -40.47106    -0.4578922    3.465298    54.63403    6.748393    -4.986824E-07    2.758094E-07    1.029935E-07    -0.5916106    2.710212    2.788037    0.05219189    0.3966787    15.07269    0.07834553    -4.856192    -5.730851    -6.116458    -33.53154    17.89861    2.025883E-07    -0.0001440673    0.005473196    3.322914    5.073453    -12.90057
-0.2965266    8.811159    0.08709634    1.605226    10.98597    0.6089206    0.8923537    -8.446938    0.3633527    1.810115    1.0032    0.7684892    -0.03750745    -2.166512    4.251985    0.2620363    -6.315254    21.75943    -5.085185    -0.6867509    0.08549076    -27.09844    15.33505    -7.207564    -0.5443304    -26.34577    2.370409    1.188959E-07    8.255852E-08    -9.757564E-08    4.094613    -2.820679    -0.1031178    21.91448    -40.7076    -0.6313456    3.601613    55.28941    6.915185    -7.788727E-07    4.91904E-07    2.125278E-07    -0.5692335    2.673999    2.160123    0.06105815    0.4283298    16.30741    0.1057097    -4.889061    -4.858193    -6.079666    -33.62582    17.89291    3.974625E-09    -0.0007081964    0.02658223    3.322348    5.068881    -12.95636
-0.3055086    8.805393    0.09580477    1.597837    10.98539    0.6700737    0.9438964    -8.365938    0.3277628    1.836944    0.9856259    0.7904944    -0.03737577    -2.17379    4.207042    0.2674599    -6.444878    21.52624    -5.463737    -0.8164359    0.09310478    -29.161    14.24377    -7.430508    -0.5180578    -25.76264    2.310075    1.824765E-07    -4.946618E-07    -4.735064E-07    4.254881    -2.765101    -0.104114    23.08478    -40.9751    -0.8680714    3.778661    56.10208    7.129898    -3.414007E-08    -3.92102E-07    -2.274959E-07    -0.5384734    2.633141    1.376564    0.07309187    0.4675946    17.85023    0.1404991    -4.940243    -4.046151    -6.084832    -33.88654    17.91296    2.989132E-07    -0.00141363    0.05311469    3.36554    5.058989    -13.01549
-0.3162502    8.798139    0.107009    1.590063    10.98467    0.7471    0.9989672    -8.265378    0.2851763    1.864771    0.9646919    0.8187196    -0.03723124    -2.186191    4.150832    0.274764    -6.619367    21.23336    -5.854605    -0.9688684    0.100821    -31.37536    13.16763    -7.71487    -0.504336    -25.45076    2.278049    1.469955E-06    3.38836E-07    1.375593E-07    4.453865    -2.695431    -0.1052626    24.5521    -41.22487    -1.163249    3.984087    56.99464    7.376538    -4.217263E-08    -4.493474E-07    -2.889026E-07    -0.4996272    2.593274    0.4892488    0.08801391    0.5117173    19.60006    0.1812546    -5.013298    -3.534024    -6.129338    -34.29384    17.9579    -2.003389E-07    -0.002262274    0.08495039    3.449517    5.044962    -13.07747
-0.3283908    8.789463    0.1207124    1.582674    10.98382    0.8392834    1.052558    -8.146852    0.2370092    1.890648    0.9411377    0.8531545    -0.03702466    -2.203657    4.084159    0.2837741    -6.834377    20.88463    -6.214534    -1.137455    0.1077901    -33.60172    12.44765    -8.081562    -0.5274174    -25.97248    2.331719    1.872284E-06    -2.933473E-07    -1.330596E-07    4.688247    -2.612294    -0.106493    26.29766    -41.40577    -1.510551    4.201886    57.88694    7.635353    3.510087E-07    -4.210319E-07    -4.238595E-07    -0.4530401    2.559747    -0.4583483    0.1054559    0.5583797    21.47153    0.2271492    -5.110309    -3.29682    -6.21099    -34.82778    18.02771    -1.050717E-06    -0.003228348    0.1212831    3.571491    5.02793    -13.14123
-0.3415699    8.779443    0.1369186    1.57644    10.98284    0.9459101    1.099671    -8.01202    0.1846686    1.911618    0.9157196    0.8938196    -0.03670425    -2.226171    4.007852    0.2943161    -7.085744    20.48389    -6.547856    -1.316925    0.1140569    -35.86211    12.01993    -8.503387    -0.5826408    -27.16519    2.456231    4.417675E-07    -3.024098E-07    -1.917142E-08    4.954792    -2.516264    -0.1077405    28.2982    -41.46822    -1.901748    4.41256    58.70189    7.883351    -4.325367E-08    1.414828E-07    -1.158973E-07    -0.3996973    2.539765    -1.437468    0.1250001    0.6058089    23.39872    0.2792091    -5.233961    -3.133249    -6.32789    -35.46836    18.12233    -4.067827E-06    -0.004308121    0.1618945    3.728727    5.009092    -13.20581
-0.3554271    8.768145    0.1556309    1.572131    10.98175    1.066264    1.135329    -7.862541    0.1295617    1.924765    0.8891937    0.9407713    -0.03622179    -2.253755    3.922741    0.3062345    -7.369549    20.03515    -6.885426    -1.502858    0.120119    -38.22884    11.52529    -8.916271    -0.6394546    -28.31895    2.579236    -7.679649E-07    8.376502E-08    -2.117577E-07    5.250171    -2.407884    -0.108949    30.52486    -41.36715    -2.326285    4.594066    59.3692    8.095337    -1.493387E-07    2.045239E-07    1.14315E-07    -0.3435895    2.533617    -2.437783    0.1462555    0.652822    25.33711    0.3391889    -5.381195    -3.026291    -6.478268    -36.19557    18.24173    -5.297908E-06    -0.005499872    0.2066022    3.918494    4.989607    -13.2701
-0.3696018    8.755642    0.1768528    1.57052    10.98054    1.199631    1.154572    -7.700069    0.07308712    1.927173    0.8623326    0.9941024    -0.03553138    -2.286491    3.829686    0.3193786    -7.682197    19.54255    -7.223464    -1.689616    0.1258791    -40.67062    10.95992    -9.300802    -0.6938487    -29.36289    2.692854    -7.484779E-07    6.512919E-07    3.936478E-07    5.570781    -2.287703    -0.1100764    32.9431    -41.06427    -2.771207    4.723878    59.82799    8.246047    2.372257E-07    3.368317E-07    6.911063E-07    -0.2897258    2.536123    -3.452894    0.1687837    0.6984962    27.25046    0.4074953    -5.543644    -2.963193    -6.66045    -36.9894    18.3861    -9.823921E-06    -0.006780551    0.2547221    4.138067    4.970684    -13.33272
-0.383378    8.742017    0.2005189    1.58199    10.97919    1.347126    1.143038    -7.526547    0.01663594    1.915933    0.8359587    1.053961    -0.03458883    -2.324547    3.729574    0.3336209    -8.020365    19.01048    -7.55816    -1.87144    0.1312662    -43.15817    10.34306    -9.643341    -0.743273    -30.26541    2.792975    -3.015974E-07    -6.17366E-07    -1.618194E-07    5.912953    -2.156317    -0.1111008    35.51292    -40.53012    -3.221438    4.782113    60.02909    8.313438    -3.429445E-07    -9.07416E-07    -4.695423E-07    -0.2547517    2.542569    -4.478312    0.1920631    0.742023    29.10499    0.4860487    -5.712879    -2.931899    -6.883775    -37.82899    18.55473    -1.58516E-05    -0.008167102    0.3068064    4.386235    4.952902    -13.39186
-0.3961052    8.727347    0.2265764    1.615159    10.97766    1.509527    1.088127    -7.343935    -0.03840831    1.888169    0.8109158    1.12054    -0.033362    -2.368168    3.623311    0.3488393    -8.381143    18.44344    -7.885926    -2.042422    0.136229    -45.66511    9.713563    -9.936719    -0.7869216    -31.02945    2.879182    6.220733E-07    -5.11935E-07    -2.106578E-07    6.272773    -2.014367    -0.1120281    38.19094    -39.74542    -3.660847    4.755139    59.93631    8.282238    1.082449E-06    2.17835E-07    7.719552E-07    -0.2533731    2.548078    -5.513686    0.2155692    0.7828178    30.87393    0.5759858    -5.880599    -2.923171    -7.155272    -38.69368    18.74605    -2.430306E-05    -0.009696548    0.3642811    4.661251    4.936919    -13.44629
-0.4075213    8.711706    0.255048    1.668138    10.97597    1.685613    0.9875939    -7.154162    -0.09066713    1.840981    0.7880615    1.194083    -0.03182004    -2.417645    3.51183    0.3649318    -8.761924    17.84626    -8.203203    -2.196448    0.1407389    -48.16903    9.126599    -10.18072    -0.8258845    -31.68767    2.954569    -1.556306E-06    9.798082E-08    1.959246E-07    6.646281    -1.862522    -0.1128852    40.93252    -38.70211    -4.073519    4.638513    59.52797    8.14702    -1.031342E-06    -9.379502E-07    -1.157543E-07    -0.2878937    2.547019    -6.562559    0.2388131    0.8205016    32.53738    0.6758135    -6.038974    -2.930522    -7.469237    -39.56361    18.95911    -3.471657E-05    -0.01133775    0.4259121    4.959366    4.923566    -13.4947
-0.4173644    8.695162    0.2859564    1.739041    10.97413    1.874158    0.8392166    -6.959104    -0.1387542    1.771512    0.7682617    1.274884    -0.02994106    -2.473322    3.396091    0.381813    -9.160514    17.22393    -8.50659    -2.327224    0.1447861    -50.65181    8.650282    -10.38218    -0.8631758    -32.29755    3.02538    -9.526963E-07    3.220649E-07    4.55832E-09    7.029162    -1.701509    -0.1137176    43.69531    -37.40345    -4.445383    4.43807    58.79752    7.913221    8.012381E-07    -8.977428E-07    -4.072237E-07    -0.3606027    2.533674    -7.629476    0.2612887    0.8547573    34.07671    0.7834978    -6.180444    -2.947706    -7.81947    -40.4191    19.19206    -4.73955E-05    -0.01306857    0.4909517    5.276563    4.91389    -13.5362
-0.4253726    8.677784    0.3193244    1.825979    10.97215    2.073943    0.6350654    -6.761887    -0.1801888    1.672614    0.7533721    1.36364    -0.02771905    -2.536545    3.277268    0.3994268    -9.575425    16.58264    -8.791209    -2.428959    0.1484703    -53.09436    8.373126    -10.55675    -0.9046855    -32.95559    3.10286    5.525549E-07    1.06209E-07    -2.473574E-07    7.418513    -1.532744    -0.1147414    46.44867    -35.85482    -4.76406    4.165431    57.74123    7.592206    8.32685E-07    1.622942E-07    -5.037543E-08    -0.4779828    2.478365    -8.718806    0.2824712    0.8853064    35.47342    0.8896443    -6.274506    -2.968485    -8.19895    -41.24041    19.44219    -6.229378E-05    -0.01486541    0.5585228    5.608538    4.908626    -13.57016
